<svg width="254" height="139" viewBox="0 0 254 139" fill="none" xmlns="http://www.w3.org/2000/svg">
<path d="M250.5 131H246V125L250.5 131Z" fill="#352C22"/>
<path d="M7 70H246V131H7V70Z" fill="#97918C"/>
<line x1="7" y1="85" x2="246" y2="85" stroke="#8E8278" stroke-width="0.5"/>
<line x1="7" y1="94.8036" x2="246" y2="94.8036" stroke="#8E8278" stroke-width="0.5"/>
<line x1="7" y1="104.607" x2="246" y2="104.607" stroke="#8E8278" stroke-width="0.5"/>
<line x1="7" y1="114.411" x2="246" y2="114.411" stroke="#8E8278" stroke-width="0.5"/>
<line x1="7" y1="126.393" x2="246" y2="126.393" stroke="#8E8278" stroke-width="0.5"/>
<line x1="7" y1="76.2857" x2="246" y2="76.2857" stroke="#8E8278" stroke-width="0.5"/>
<path d="M4.5 67C33.5 42 77 4 77 4H201L249.222 64.886C249.74 65.5403 249.331 66.5039 248.496 66.5066C230.394 66.5654 93.7 67 4.5 67Z" fill="#584A3A"/>
<path d="M4.5 67C33.5 42 77 4 77 4H201L249.222 64.886C249.74 65.5403 249.331 66.5039 248.496 66.5066C230.394 66.5654 93.7 67 4.5 67ZM4.5 67C4.5 90.822 4.5 135 4.5 135H250.5" stroke="#46392B" stroke-width="8"/>
</svg>
